<?xml version="1.0" encoding="iso-8859-1"?>
<!-- Generator: Adobe Illustrator 19.0.0, SVG Export Plug-In . SVG Version: 6.00 Build 0)  -->
<svg version="1.1" id="Layer_1" xmlns="http://www.w3.org/2000/svg" xmlns:xlink="http://www.w3.org/1999/xlink" x="0px" y="0px"
	 viewBox="0 0 512 512" style="enable-background:new 0 0 512 512;" xml:space="preserve">
<path style="fill:#EFEFEF;" d="M417.392,228.464h-7.576c-3.528-14.896-11.68-27.976-22.816-37.728L253,353.56L148.872,252.288
	l39.544-42.904l59.96,58.328l76.848-93.384c-3.216,0.664-6.376,1.48-9.424,2.536c-16.728-47.696-62.032-81.96-115.44-81.96
	c-67.616,0-122.432,54.816-122.432,122.432c0,4.256,0.224,8.464,0.648,12.608C34.112,237.632,0,276.52,0,323.072
	c0,52.032,42.576,94.608,94.608,94.608h322.784c52.032,0,94.608-42.576,94.608-94.608S469.424,228.464,417.392,228.464z"/>
<polygon style="fill:#8AD5DD;" points="188.408,209.384 148.872,252.288 253,353.56 387,190.736 434.96,132.456 391.056,94.32 
	325.216,174.32 248.368,267.712 "/>
<g>
</g>
<g>
</g>
<g>
</g>
<g>
</g>
<g>
</g>
<g>
</g>
<g>
</g>
<g>
</g>
<g>
</g>
<g>
</g>
<g>
</g>
<g>
</g>
<g>
</g>
<g>
</g>
<g>
</g>
</svg>
